<svg width="16" height="17" viewBox="0 0 16 17" fill="none" xmlns="http://www.w3.org/2000/svg">
<path d="M8.01998 11.72C7.65331 11.72 7.35331 11.42 7.35331 11.0534V9.05337C6.98665 9.05337 6.68665 8.75337 6.68665 8.3867C6.68665 8.02003 6.98665 7.72003 7.35331 7.72003H7.72664C8.25331 7.72003 8.68665 8.1467 8.68665 8.67337V11.0534C8.68665 11.42 8.38665 11.72 8.01998 11.72Z" fill="#FF5F5F"/>
<path d="M8 6.99333C8.41974 6.99333 8.76001 6.65306 8.76001 6.23333C8.76001 5.81359 8.41974 5.47333 8 5.47333C7.58026 5.47333 7.23999 5.81359 7.23999 6.23333C7.23999 6.65306 7.58026 6.99333 8 6.99333Z" fill="#FF5F5F"/>
<path d="M7.99996 2.50002C11.3066 2.50002 14 5.19335 14 8.50002C14 11.8067 11.3066 14.5 7.99996 14.5C4.69329 14.5 1.99996 11.8067 1.99996 8.50002C1.99996 5.19335 4.69329 2.50002 7.99996 2.50002ZM7.99996 1.16669C3.94663 1.16669 0.666626 4.44669 0.666626 8.50002C0.666626 12.5534 3.94663 15.8334 7.99996 15.8334C12.0533 15.8334 15.3333 12.5534 15.3333 8.50002C15.3333 4.44669 12.0533 1.16669 7.99996 1.16669Z" fill="#FF5F5F"/>
</svg>
