<svg width="16" height="17" viewBox="0 0 16 17" fill="none" xmlns="http://www.w3.org/2000/svg">
<path d="M8.0201 11.72C7.65343 11.72 7.35343 11.42 7.35343 11.0534V9.05337C6.98677 9.05337 6.68677 8.75337 6.68677 8.3867C6.68677 8.02003 6.98677 7.72003 7.35343 7.72003H7.72677C8.25343 7.72003 8.68677 8.1467 8.68677 8.67337V11.0534C8.68677 11.42 8.38677 11.72 8.0201 11.72Z" fill="#606C82"/>
<path d="M8 6.99333C8.41974 6.99333 8.76001 6.65306 8.76001 6.23333C8.76001 5.81359 8.41974 5.47333 8 5.47333C7.58026 5.47333 7.23999 5.81359 7.23999 6.23333C7.23999 6.65306 7.58026 6.99333 8 6.99333Z" fill="#606C82"/>
<path d="M8.00008 2.50002C11.3067 2.50002 14.0001 5.19335 14.0001 8.50002C14.0001 11.8067 11.3067 14.5 8.00008 14.5C4.69341 14.5 2.00008 11.8067 2.00008 8.50002C2.00008 5.19335 4.69341 2.50002 8.00008 2.50002ZM8.00008 1.16669C3.94675 1.16669 0.666748 4.44669 0.666748 8.50002C0.666748 12.5534 3.94675 15.8334 8.00008 15.8334C12.0534 15.8334 15.3334 12.5534 15.3334 8.50002C15.3334 4.44669 12.0534 1.16669 8.00008 1.16669Z" fill="#606C82"/>
</svg>
