<svg width="16" height="16" viewBox="0 0 16 16" fill="none" xmlns="http://www.w3.org/2000/svg">
<path d="M12.6667 7.33341H8.66675V3.33341C8.66675 2.96675 8.36675 2.66675 8.00008 2.66675C7.63341 2.66675 7.33341 2.96675 7.33341 3.33341V7.33341H3.33341C2.96675 7.33341 2.66675 7.63341 2.66675 8.00008C2.66675 8.36675 2.96675 8.66675 3.33341 8.66675H7.33341V12.6667C7.33341 13.0334 7.63341 13.3334 8.00008 13.3334C8.36675 13.3334 8.66675 13.0334 8.66675 12.6667V8.66675H12.6667C13.0334 8.66675 13.3334 8.36675 13.3334 8.00008C13.3334 7.63341 13.0334 7.33341 12.6667 7.33341Z" fill="white"/>
</svg>
