<svg width="18" height="18" viewBox="0 0 18 18" fill="none" xmlns="http://www.w3.org/2000/svg">
<path d="M10.0875 9L12.9825 6.105C13.275 5.8125 13.275 5.34 12.9825 5.0475C12.69 4.755 12.2175 4.755 11.925 5.0475L9.03003 7.9425L6.13503 5.0475C5.84253 4.755 5.37003 4.755 5.07753 5.0475C4.78503 5.34 4.78503 5.8125 5.07753 6.105L7.97253 9L5.07753 11.895C4.78503 12.1875 4.78503 12.66 5.07753 12.9525C5.22753 13.1025 5.41503 13.17 5.61003 13.17C5.80503 13.17 5.99253 13.095 6.14253 12.9525L9.03753 10.0575L11.9325 12.9525C12.0825 13.1025 12.27 13.17 12.465 13.17C12.66 13.17 12.8475 13.095 12.9975 12.9525C13.29 12.66 13.29 12.1875 12.9975 11.895L10.1025 9H10.0875Z" fill="#606C82"/>
</svg>
