<svg width="20" height="20" viewBox="0 0 20 20" fill="none" xmlns="http://www.w3.org/2000/svg">
<path d="M17.0833 3.33325H13.3333V2.91659C13.3333 1.76659 12.3999 0.833252 11.2499 0.833252H8.74992C7.59992 0.833252 6.66659 1.76659 6.66659 2.91659V3.33325H2.91659C2.45825 3.33325 2.08325 3.70825 2.08325 4.16658C2.08325 4.62492 2.45825 4.99992 2.91659 4.99992H3.74992V15.8333C3.74992 17.6749 5.24159 19.1666 7.08325 19.1666H12.9166C14.7583 19.1666 16.2499 17.6749 16.2499 15.8333V4.99992H17.0833C17.5416 4.99992 17.9166 4.62492 17.9166 4.16658C17.9166 3.70825 17.5416 3.33325 17.0833 3.33325ZM8.33325 2.91659C8.33325 2.68325 8.51659 2.49992 8.74992 2.49992H11.2499C11.4833 2.49992 11.6666 2.68325 11.6666 2.91659V3.33325H8.33325V2.91659ZM14.5833 15.8333C14.5833 16.7499 13.8333 17.4999 12.9166 17.4999H7.08325C6.16659 17.4999 5.41659 16.7499 5.41659 15.8333V4.99992H14.5833V15.8333Z" fill="#606C82"/>
<path d="M8.08333 8.4165C7.625 8.4165 7.25 8.7915 7.25 9.24984V13.1832C7.25 13.6415 7.625 14.0165 8.08333 14.0165C8.54167 14.0165 8.91667 13.6415 8.91667 13.1832V9.24984C8.91667 8.7915 8.54167 8.4165 8.08333 8.4165Z" fill="#606C82"/>
<path d="M11.0833 9.24984V13.1832C11.0833 13.6415 11.4583 14.0165 11.9166 14.0165C12.3749 14.0165 12.7499 13.6415 12.7499 13.1832V9.24984C12.7499 8.7915 12.3749 8.4165 11.9166 8.4165C11.4583 8.4165 11.0833 8.7915 11.0833 9.24984Z" fill="#606C82"/>
</svg>
