<svg width="24" height="24" viewBox="0 0 24 24" fill="none" xmlns="http://www.w3.org/2000/svg">
<path d="M21.15 19.74C21.7 18.92 22.03 17.93 22.03 16.87C22.03 14.02 19.72 11.71 16.87 11.71C14.02 11.71 11.71 14.02 11.71 16.87C11.71 19.72 14.02 22.03 16.87 22.03C17.93 22.03 18.92 21.71 19.74 21.15L21.29 22.7C21.49 22.9 21.74 22.99 22 22.99C22.26 22.99 22.51 22.89 22.71 22.7C23.1 22.31 23.1 21.68 22.71 21.29L21.16 19.74H21.15ZM13.71 16.87C13.71 15.13 15.13 13.71 16.87 13.71C18.61 13.71 20.03 15.13 20.03 16.87C20.03 18.61 18.61 20.03 16.87 20.03C15.13 20.03 13.71 18.61 13.71 16.87Z" fill="#C0C7D3"/>
<path d="M17.45 1H6.55C3.49 1 1 3.49 1 6.55V17.46C1 20.52 3.49 23.01 6.54 23.01H9.45C10 23.01 10.45 22.56 10.45 22.01C10.45 21.46 10 21.01 9.45 21.01H6.54C4.58 21.01 3 19.42 3 17.46V6.55C3 4.59 4.59 3 6.54 3H17.45C19.41 3 21 4.59 21 6.55V9.46C21 10.01 21.45 10.46 22 10.46C22.55 10.46 23 10.01 23 9.46V6.55C23 3.49 20.51 1 17.45 1Z" fill="#C0C7D3"/>
<path d="M7.25 8.70996H16.76C17.31 8.70996 17.76 8.25996 17.76 7.70996C17.76 7.15996 17.31 6.70996 16.76 6.70996H7.25C6.7 6.70996 6.25 7.15996 6.25 7.70996C6.25 8.25996 6.7 8.70996 7.25 8.70996Z" fill="#C0C7D3"/>
<path d="M10 11.01H7.25C6.7 11.01 6.25 11.46 6.25 12.01C6.25 12.56 6.7 13.01 7.25 13.01H10C10.55 13.01 11 12.56 11 12.01C11 11.46 10.55 11.01 10 11.01Z" fill="#C0C7D3"/>
</svg>
