<svg width="24" height="24" viewBox="0 0 24 24" fill="none" xmlns="http://www.w3.org/2000/svg">
<path d="M17 1H7C3.69 1 1 3.69 1 7V17C1 20.31 3.69 23 7 23H17C20.31 23 23 20.31 23 17V7C23 3.69 20.31 1 17 1ZM21 17C21 19.21 19.21 21 17 21H7C4.79 21 3 19.21 3 17V7C3 4.79 4.79 3 7 3H17C19.21 3 21 4.79 21 7V17Z" fill="#606C82"/>
<path d="M16.74 16.14H7.27002C6.72002 16.14 6.27002 16.59 6.27002 17.14C6.27002 17.69 6.72002 18.14 7.27002 18.14H16.74C17.29 18.14 17.74 17.69 17.74 17.14C17.74 16.59 17.29 16.14 16.74 16.14Z" fill="#606C82"/>
<path d="M11.29 14.41C11.38 14.5 11.49 14.58 11.62 14.63C11.74 14.68 11.87 14.71 12 14.71C12.13 14.71 12.26 14.68 12.38 14.63C12.5 14.58 12.61 14.51 12.71 14.41L16.28 10.84C16.67 10.45 16.67 9.82 16.28 9.43C15.89 9.04 15.26 9.04 14.87 9.43L13 11.3V6.87C13 6.32 12.55 5.87 12 5.87C11.45 5.87 11 6.32 11 6.87V11.3L9.12999 9.43C8.73999 9.04 8.10999 9.04 7.71999 9.43C7.32999 9.82 7.32999 10.45 7.71999 10.84L11.29 14.41Z" fill="#606C82"/>
</svg>
