<svg width="24" height="24" viewBox="0 0 24 24" fill="none" xmlns="http://www.w3.org/2000/svg">
<path d="M11.2999 15.31C11.3899 15.4 11.4999 15.48 11.6299 15.53C11.7499 15.58 11.8799 15.61 12.0099 15.61C12.1399 15.61 12.2699 15.58 12.3899 15.53C12.5099 15.48 12.6199 15.41 12.7199 15.31L17.8799 10.15C18.2699 9.75997 18.2699 9.12997 17.8799 8.73997C17.4899 8.34997 16.8599 8.34997 16.4699 8.73997L13.0199 12.19V1.96997C13.0199 1.41997 12.5699 0.969971 12.0199 0.969971C11.4699 0.969971 11.0199 1.41997 11.0199 1.96997V12.19L7.56994 8.73997C7.17994 8.34997 6.54993 8.34997 6.15993 8.73997C5.76993 9.12997 5.76993 9.75997 6.15993 10.15L11.3199 15.31H11.2999Z" fill="#306AFF"/>
<path d="M22 13.03C21.45 13.03 21 13.48 21 14.03V18.03C21 19.68 19.65 21.03 18 21.03H6C4.35 21.03 3 19.68 3 18.03V14.03C3 13.48 2.55 13.03 2 13.03C1.45 13.03 1 13.48 1 14.03V18.03C1 20.79 3.24 23.03 6 23.03H18C20.76 23.03 23 20.79 23 18.03V14.03C23 13.48 22.55 13.03 22 13.03Z" fill="#306AFF"/>
</svg>
