<svg width="16" height="16" viewBox="0 0 16 16" fill="none" xmlns="http://www.w3.org/2000/svg">
<path d="M5.34669 14.7267C4.10002 14.7267 2.92002 14.2401 2.04002 13.3534C1.15335 12.4734 0.666687 11.2934 0.666687 10.0467C0.666687 8.80006 1.15335 7.62006 2.04002 6.74006L7.31335 1.46673C7.57335 1.20673 7.99335 1.20673 8.25335 1.46673C8.51335 1.72673 8.51335 2.14673 8.25335 2.40673L2.98002 7.68006C2.34669 8.31339 2.00002 9.15339 2.00002 10.0467C2.00002 10.9401 2.34669 11.7801 2.98002 12.4134C3.61335 13.0467 4.45335 13.3934 5.34669 13.3934C6.24002 13.3934 7.08002 13.0467 7.71335 12.4134L13.3867 6.74006C14.2067 5.92006 14.2067 4.58673 13.3867 3.76673C12.5667 2.94673 11.2334 2.94673 10.4134 3.76673L5.07335 9.10673C4.74002 9.44006 4.74002 9.98673 5.07335 10.3267C5.40669 10.6601 5.95335 10.6601 6.29335 10.3267L10.2667 6.35339C10.5267 6.09339 10.9467 6.09339 11.2067 6.35339C11.4667 6.61339 11.4667 7.03339 11.2067 7.29339L7.23335 11.2667C6.38002 12.1201 4.98669 12.1201 4.13335 11.2667C3.28002 10.4134 3.28002 9.02006 4.13335 8.16673L9.47335 2.82673C10.8134 1.48673 12.9934 1.48673 14.3334 2.82673C15.6734 4.16673 15.6734 6.34673 14.3334 7.68673L8.66002 13.3601C7.78002 14.2467 6.60002 14.7334 5.35335 14.7334L5.34669 14.7267Z" fill="#606C82"/>
</svg>
