<svg width="18" height="18" viewBox="0 0 18 18" fill="none" xmlns="http://www.w3.org/2000/svg">
<path d="M12.375 14.25C12.18 14.25 11.9925 14.175 11.8425 14.0325L7.34254 9.53249C7.05004 9.23999 7.05004 8.76749 7.34254 8.47499L11.8425 3.97499C12.135 3.68249 12.6075 3.68249 12.9 3.97499C13.1925 4.26749 13.1925 4.73999 12.9 5.03249L8.93254 8.99999L12.9 12.9675C13.1925 13.26 13.1925 13.7325 12.9 14.025C12.75 14.175 12.5625 14.2425 12.3675 14.2425L12.375 14.25Z" fill="#96A0B3"/>
<path d="M8.62504 14.25C8.43004 14.25 8.24254 14.175 8.09254 14.0325L3.59254 9.53249C3.30004 9.23999 3.30004 8.76749 3.59254 8.47499L8.09254 3.97499C8.38504 3.68249 8.85754 3.68249 9.15004 3.97499C9.44254 4.26749 9.44254 4.73999 9.15004 5.03249L5.18254 8.99999L9.15004 12.9675C9.44254 13.26 9.44254 13.7325 9.15004 14.025C9.00004 14.175 8.81254 14.2425 8.61754 14.2425L8.62504 14.25Z" fill="#96A0B3"/>
</svg>
