<svg width="18" height="18" viewBox="0 0 18 18" fill="none" xmlns="http://www.w3.org/2000/svg">
<path d="M5.62496 14.25C5.81996 14.25 6.00746 14.175 6.15746 14.0325L10.6575 9.53249C10.95 9.23999 10.95 8.76749 10.6575 8.47499L6.15746 3.97499C5.86496 3.68249 5.39246 3.68249 5.09996 3.97499C4.80746 4.26749 4.80746 4.73999 5.09996 5.03249L9.06746 8.99999L5.09996 12.9675C4.80746 13.26 4.80746 13.7325 5.09996 14.025C5.24996 14.175 5.43746 14.2425 5.63246 14.2425L5.62496 14.25Z" fill="#96A0B3"/>
<path d="M9.37496 14.25C9.56996 14.25 9.75746 14.175 9.90746 14.0325L14.4075 9.53249C14.7 9.23999 14.7 8.76749 14.4075 8.47499L9.90746 3.97499C9.61496 3.68249 9.14246 3.68249 8.84996 3.97499C8.55746 4.26749 8.55746 4.73999 8.84996 5.03249L12.8175 8.99999L8.84996 12.9675C8.55746 13.26 8.55746 13.7325 8.84996 14.025C8.99996 14.175 9.18746 14.2425 9.38246 14.2425L9.37496 14.25Z" fill="#96A0B3"/>
</svg>
